<?xml version="1.0" encoding="UTF-8" standalone="no"?>
<svg
   viewBox="0 0 32 32"
   width="96px"
   height="96px"
   version="1.1"
   id="svg1"
   sodipodi:docname="amazon_transparent.svg"
   inkscape:version="1.4.2 (ebf0e940d0, 2025-05-08)"
   xmlns:inkscape="http://www.inkscape.org/namespaces/inkscape"
   xmlns:sodipodi="http://sodipodi.sourceforge.net/DTD/sodipodi-0.dtd"
   xmlns="http://www.w3.org/2000/svg"
   xmlns:svg="http://www.w3.org/2000/svg">
  <defs
     id="defs1" />
  <sodipodi:namedview
     id="namedview1"
     pagecolor="#ffffff"
     bordercolor="#000000"
     borderopacity="0.25"
     inkscape:showpageshadow="2"
     inkscape:pageopacity="0.0"
     inkscape:pagecheckerboard="0"
     inkscape:deskcolor="#d1d1d1"
     inkscape:zoom="10.145833"
     inkscape:cx="47.950719"
     inkscape:cy="48.049281"
     inkscape:window-width="3840"
     inkscape:window-height="2130"
     inkscape:window-x="0"
     inkscape:window-y="30"
     inkscape:window-maximized="1"
     inkscape:current-layer="svg1" />
  <path
     d="M 9.4003906 4 C 6.4183906 4 4 6.4183906 4 9.4003906 L 4 22.599609 C 4 25.581609 6.4183906 28 9.4003906 28 L 22.599609 28 C 25.581609 28 28 25.581609 28 22.599609 L 28 9.4003906 C 28 6.4183906 25.581609 4 22.599609 4 L 9.4003906 4 z M 9.4003906 6 L 22.599609 6 C 24.474609 6 26 7.5253906 26 9.4003906 L 26 22.599609 C 26 24.474609 24.474609 26 22.599609 26 L 9.4003906 26 C 7.5253906 26 6 24.474609 6 22.599609 L 6 9.4003906 C 6 7.5253906 7.5253906 6 9.4003906 6 z M 21 12 A 0.5 0.5 0 0 0 21 13 A 0.5 0.5 0 0 0 21 12 z M 7 14 L 7 18 L 8 18 L 8 15.623047 C 8.1708354 15.310546 8.3349971 15.129652 8.4453125 15.060547 C 8.5673313 14.984107 8.6219644 14.992009 8.6914062 15.011719 C 8.8302901 15.051146 9 15.337662 9 15.382812 L 9 18 L 10 18 L 10 15.638672 C 10.16882 15.332927 10.336202 15.128897 10.445312 15.060547 C 10.567331 14.984107 10.621964 14.992009 10.691406 15.011719 C 10.83029 15.051148 11 15.337662 11 15.382812 L 11 18 L 12 18 L 12 15.382812 C 12 14.767964 11.606007 14.231401 10.962891 14.048828 C 10.641333 13.957538 10.248794 14.003198 9.9140625 14.212891 C 9.8172285 14.273551 9.7524833 14.432004 9.6640625 14.515625 C 9.487779 14.30767 9.2596401 14.133072 8.9628906 14.048828 C 8.6680459 13.965122 8.3149153 14.002468 8 14.169922 L 8 14 L 7 14 z M 13 14 L 13 16.5 C 13 17.322531 13.677469 18 14.5 18 C 14.69432 18 14.828893 17.859618 15 17.791016 L 15 18 L 16 18 L 16 16.5 L 16 15.5 L 16 14 L 15 14 L 15 15.5 L 15 16.5 C 15 16.781469 14.781469 17 14.5 17 C 14.218531 17 14 16.781469 14 16.5 L 14 14 L 13 14 z M 18.25 14 C 17.565469 14 17 14.565469 17 15.25 C 17 15.934531 17.565469 16.5 18.25 16.5 C 18.393469 16.5 18.5 16.606531 18.5 16.75 C 18.5 16.893469 18.393469 17 18.25 17 L 17 17 L 17 18 L 18.25 18 C 18.934531 18 19.5 17.434531 19.5 16.75 C 19.5 16.065469 18.934531 15.5 18.25 15.5 C 18.106531 15.5 18 15.393469 18 15.25 C 18 15.106531 18.106531 15 18.25 15 L 19 15 L 19 14 L 18.25 14 z M 20.5 14 L 20.5 18 L 21.5 18 L 21.5 14 L 20.5 14 z M 24.5 14 C 23.401469 14 22.5 14.901469 22.5 16 C 22.5 17.098531 23.401469 18 24.5 18 L 25 18 L 25 17 L 24.5 17 C 23.942531 17 23.5 16.557469 23.5 16 C 23.5 15.442531 23.942531 15 24.5 15 L 25 15 L 25 14 L 24.5 14 z M 23.677734 19 C 23.047859 19.0085 22.304234 19.148063 21.740234 19.539062 C 21.567234 19.659063 21.596062 19.825734 21.789062 19.802734 C 22.424062 19.727734 23.837844 19.559906 24.089844 19.878906 C 24.341844 20.197906 23.810266 21.508703 23.572266 22.095703 C 23.500266 22.271703 23.654406 22.344938 23.816406 22.210938 C 24.873406 21.338937 25.147641 19.509141 24.931641 19.244141 C 24.824141 19.113141 24.307609 18.9915 23.677734 19 z M 7.1308594 19.351562 C 6.9994688 19.368719 6.9413281 19.524687 7.0800781 19.648438 C 9.4300781 21.741437 12.534422 23 15.982422 23 C 18.442422 23 21.299531 22.237734 23.269531 20.802734 C 23.595531 20.564734 23.316422 20.208656 22.982422 20.347656 C 20.773422 21.272656 18.373453 21.71875 16.189453 21.71875 C 12.952453 21.71875 9.81625 20.842719 7.28125 19.386719 C 7.22575 19.354969 7.1746562 19.345844 7.1308594 19.351562 z"
     id="path1"
     style="fill:#ffffff;stroke:#ffffff" />
</svg>
