<?xml version="1.0" encoding="UTF-8" standalone="no"?>
<svg
   viewBox="0 0 48 48"
   width="96px"
   height="96px"
   version="1.1"
   id="svg1"
   sodipodi:docname="icons8-apple-music-96.svg"
   inkscape:version="1.4.2 (ebf0e940d0, 2025-05-08)"
   xmlns:inkscape="http://www.inkscape.org/namespaces/inkscape"
   xmlns:sodipodi="http://sodipodi.sourceforge.net/DTD/sodipodi-0.dtd"
   xmlns="http://www.w3.org/2000/svg"
   xmlns:svg="http://www.w3.org/2000/svg">
  <defs
     id="defs1" />
  <sodipodi:namedview
     id="namedview1"
     pagecolor="#ffffff"
     bordercolor="#000000"
     borderopacity="0.25"
     inkscape:showpageshadow="2"
     inkscape:pageopacity="0.0"
     inkscape:pagecheckerboard="0"
     inkscape:deskcolor="#d1d1d1"
     inkscape:zoom="10.145833"
     inkscape:cx="47.950719"
     inkscape:cy="48.049281"
     inkscape:window-width="3840"
     inkscape:window-height="2130"
     inkscape:window-x="0"
     inkscape:window-y="30"
     inkscape:window-maximized="1"
     inkscape:current-layer="svg1" />
  <path
     d="M 9.5 6 C 7.57 6 6 7.57 6 9.5 L 6 38.5 C 6 40.43 7.57 42 9.5 42 L 38.5 42 C 40.43 42 42 40.43 42 38.5 L 42 9.5 C 42 7.57 40.43 6 38.5 6 L 9.5 6 z M 9.5 9 L 38.5 9 C 38.775 9 39 9.224 39 9.5 L 39 38.5 C 39 38.775 38.775 39 38.5 39 L 9.5 39 C 9.225 39 9 38.775 9 38.5 L 9 9.5 C 9 9.224 9.225 9 9.5 9 z M 31.740234 12 C 31.644969 11.997297 31.548875 12.006141 31.453125 12.025391 L 20.503906 14.048828 C 19.685906 14.194828 19.085938 14.905516 19.085938 15.728516 L 19.085938 28.285156 C 19.085937 29.228156 18.304656 30 17.347656 30 L 16.164062 30 C 14.555062 30 13.162625 31.183406 13.015625 32.691406 C 12.928625 33.540406 13.20725 34.387672 13.78125 35.013672 C 14.36425 35.639672 15.181969 36 16.042969 36 L 16.476562 36 C 18.876563 36 21 34.366 21 32 L 21 19 L 31 17 L 31 26.542969 C 31 27.484969 29.957 28 29 28 L 28 28 C 26.391 28 25 29 25 31 C 25 33 27.139 34 28 34 L 29 34 C 32 34 33 32 33 30 L 33 13.285156 C 33 12.899156 32.82625 12.538828 32.53125 12.298828 C 32.30325 12.112828 32.026031 12.008109 31.740234 12 z"
     id="path1"
     style="stroke:#ffffff;fill:#ffffff" />
</svg>
