<svg width="30" height="31" viewBox="0 0 30 31" fill="none" xmlns="http://www.w3.org/2000/svg">
<g id="Block" clip-path="url(#clip0_0_19)">
<path id="Vector" d="M14.9995 0.915833C6.71256 0.915833 -0.00012207 7.62852 -0.00012207 15.9155C-0.00012207 24.2024 6.71256 30.9151 14.9995 30.9151C23.2865 30.9151 29.9992 24.2024 29.9992 15.9155C29.9992 7.62852 23.2872 0.915833 14.9995 0.915833ZM3.00009 15.9155C3.00009 9.28577 8.36981 3.91534 15.0002 3.91534C17.7754 3.91534 20.3179 4.86807 22.3499 6.44306L5.5278 23.2652C3.95282 21.2325 3.00009 18.69 3.00009 15.9155ZM15.0002 27.9156C12.225 27.9156 9.68254 26.9629 7.65052 25.3879L24.4727 8.56577C26.0476 10.5985 27.0004 13.141 27.0004 15.9155C27.0004 22.5452 21.6306 27.9156 15.0002 27.9156Z" fill="white"/>
</g>
<defs>
<clipPath id="clip0_0_19">
<rect width="30" height="30" fill="white" transform="translate(-0.00012207 0.915833)"/>
</clipPath>
</defs>
</svg>
