<?xml version="1.0" encoding="UTF-8" standalone="no"?>
<svg
   id="Layer_1"
   enable-background="new 0 0 24 24"
   height="512"
   viewBox="0 0 24 24"
   width="512"
   version="1.1"
   sodipodi:docname="clear-format-white.svg"
   inkscape:version="1.3.2 (091e20ef0f, 2023-11-25)"
   xmlns:inkscape="http://www.inkscape.org/namespaces/inkscape"
   xmlns:sodipodi="http://sodipodi.sourceforge.net/DTD/sodipodi-0.dtd"
   xmlns="http://www.w3.org/2000/svg"
   xmlns:svg="http://www.w3.org/2000/svg">
  <defs
     id="defs1" />
  <sodipodi:namedview
     id="namedview1"
     pagecolor="#ffffff"
     bordercolor="#000000"
     borderopacity="0.25"
     inkscape:showpageshadow="2"
     inkscape:pageopacity="0.0"
     inkscape:pagecheckerboard="0"
     inkscape:deskcolor="#d1d1d1"
     inkscape:zoom="3.7207031"
     inkscape:cx="256"
     inkscape:cy="256"
     inkscape:window-width="3840"
     inkscape:window-height="2130"
     inkscape:window-x="0"
     inkscape:window-y="30"
     inkscape:window-maximized="1"
     inkscape:current-layer="Layer_1" />
  <path
     d="m22.1 19.2h-7.6l1.3-.9 7-5.2c.4-.3.5-1 .2-1.4l-6.4-8.5c-.3-.4-1-.5-1.4-.2l-8.8 6.5-5.2 3.9c-.4.3-.5 1-.2 1.4l4.5 6c.2.3.5.4.8.4h5.3 10.4c.6 0 1-.4 1-1s-.4-1-.9-1zm-10.8 0h-4.5l-3.6-4.8 3.5-2.6 5.4 6.7zm-3-8.6 7.3-5.5 5.2 6.9-6.1 4.6-.9.6z"
     fill="rgb(0,0,0)"
     id="path1"
     style="fill:#ffffff" />
</svg>
