<?xml version="1.0" encoding="UTF-8" standalone="no"?>
<!-- Generator: Adobe Illustrator 26.0.1, SVG Export Plug-In . SVG Version: 6.00 Build 0)  -->

<svg
   version="1.1"
   id="Layer_1"
   x="0px"
   y="0px"
   viewBox="0 0 500 500"
   xml:space="preserve"
   sodipodi:docname="deezer.svg"
   inkscape:version="1.4.2 (ebf0e940, 2025-05-08)"
   width="500"
   height="500"
   xmlns:inkscape="http://www.inkscape.org/namespaces/inkscape"
   xmlns:sodipodi="http://sodipodi.sourceforge.net/DTD/sodipodi-0.dtd"
   xmlns="http://www.w3.org/2000/svg"
   xmlns:svg="http://www.w3.org/2000/svg"><defs
   id="defs93" /><sodipodi:namedview
   id="namedview93"
   pagecolor="#ffffff"
   bordercolor="#000000"
   borderopacity="0.25"
   inkscape:showpageshadow="2"
   inkscape:pageopacity="0.0"
   inkscape:pagecheckerboard="0"
   inkscape:deskcolor="#d1d1d1"
   inkscape:zoom="0.72703688"
   inkscape:cx="418.82332"
   inkscape:cy="550.17842"
   inkscape:window-width="1800"
   inkscape:window-height="1097"
   inkscape:window-x="0"
   inkscape:window-y="44"
   inkscape:window-maximized="1"
   inkscape:current-layer="Layer_1" />

<g
   id="g92">
</g>
<g
   id="g93"
   transform="matrix(1.1111111,0,0,1.1111037,-27.777778,-27.77537)">
	<path
   style="clip-rule:evenodd;fill:#a238ff;fill-rule:evenodd"
   d="m 402.417,93.653 c 4.163,-24.131 10.272,-39.306 17.039,-39.335 h 0.015 c 12.619,0.044 22.848,52.669 22.848,117.643 0,64.973 -10.244,117.642 -22.877,117.642 -5.179,0 -9.957,-8.943 -13.806,-23.929 -6.081,54.857 -18.699,92.569 -33.307,92.569 -11.303,0 -21.446,-22.653 -28.256,-58.379 -4.65,67.945 -16.353,116.149 -30.031,116.149 -8.584,0 -16.41,-19.102 -22.204,-50.204 -6.968,64.205 -23.063,109.192 -41.834,109.192 -18.771,0 -34.894,-44.973 -41.833,-109.192 -5.752,31.103 -13.577,50.204 -22.205,50.204 -13.677,0 -25.352,-48.205 -30.03,-116.149 -6.81,35.726 -16.925,58.379 -28.256,58.379 -14.593,0 -27.226,-37.697 -33.306,-92.569 -3.82,15.03 -8.627,23.929 -13.806,23.929 -12.633,0 -22.877,-52.669 -22.877,-117.642 0,-64.974 10.244,-117.643 22.877,-117.643 6.782,0 12.848,15.218 17.054,39.335 6.739,-41.61 17.684,-68.655 30.059,-68.655 14.694,0 27.427,38.248 33.45,93.786 5.894,-40.422 14.836,-66.191 24.851,-66.191 14.034,0 25.967,50.683 30.388,121.382 8.312,-36.249 20.344,-58.988 33.664,-58.988 13.32,0 25.352,22.755 33.65,58.988 4.435,-70.699 16.353,-121.382 30.388,-121.382 10,0 18.928,25.769 24.851,66.191 6.008,-55.538 18.742,-93.786 33.435,-93.786 12.333,10e-4 23.321,27.06 30.059,68.655 z M 25,160.39 c 0,-29.045 5.809,-52.597 12.976,-52.597 7.167,0 12.976,23.552 12.976,52.597 0,29.044 -5.809,52.596 -12.976,52.596 C 30.809,212.986 25,189.434 25,160.39 Z m 424.047,0 c 0,-29.045 5.808,-52.597 12.976,-52.597 7.168,0 12.977,23.553 12.977,52.597 0,29.044 -5.809,52.596 -12.977,52.596 -7.168,0 -12.976,-23.552 -12.976,-52.596 z"
   id="path92" />
</g>
</svg>
