<?xml version="1.0" encoding="UTF-8" standalone="no"?>
<svg
   id="Layer_1"
   style="enable-background:new 0 0 1000 1000;"
   version="1.1"
   viewBox="0 0 1000 1000"
   xml:space="preserve"
   sodipodi:docname="reddit.svg"
   inkscape:version="1.3.2 (091e20ef0f, 2023-11-25)"
   xmlns:inkscape="http://www.inkscape.org/namespaces/inkscape"
   xmlns:sodipodi="http://sodipodi.sourceforge.net/DTD/sodipodi-0.dtd"
   xmlns="http://www.w3.org/2000/svg"
   xmlns:svg="http://www.w3.org/2000/svg"><defs
     id="defs1" /><sodipodi:namedview
     id="namedview1"
     pagecolor="#ffffff"
     bordercolor="#000000"
     borderopacity="0.25"
     inkscape:showpageshadow="2"
     inkscape:pageopacity="0.0"
     inkscape:pagecheckerboard="0"
     inkscape:deskcolor="#d1d1d1"
     inkscape:zoom="1.905"
     inkscape:cx="500"
     inkscape:cy="500"
     inkscape:window-width="3840"
     inkscape:window-height="2130"
     inkscape:window-x="0"
     inkscape:window-y="30"
     inkscape:window-maximized="1"
     inkscape:current-layer="Layer_1" /><style
     type="text/css"
     id="style1">
	.st0{fill:#FFFFFF;}
</style><title
     id="title1" /><path
     d="m 500,1000 v 0 C 223.9,1000 0,776.1 0,500 v 0 C 0,223.9 223.9,0 500,0 v 0 c 276.1,0 500,223.9 500,500 v 0 c 0,276.1 -223.9,500 -500,500 z"
     id="path1"
     style="fill:#ffffff" /><path
     class="st0"
     d="m 614.6,604.2 c -28.7,0 -52.1,-23.4 -52.1,-52.1 0,-28.7 23.4,-52.1 52.1,-52.1 28.7,0 52.1,23.4 52.1,52.1 0,28.7 -23.4,52.1 -52.1,52.1 m 9.2,85.5 C 588.2,725.2 520.1,728 500.1,728 c -20,0 -88.2,-2.8 -123.7,-38.3 -5.3,-5.3 -5.3,-13.8 0,-19.1 5.3,-5.3 13.8,-5.3 19.1,0 22.4,22.4 70.3,30.4 104.6,30.4 34.2,0 82.2,-8 104.6,-30.4 5.3,-5.3 13.8,-5.3 19.1,0 5.2,5.3 5.2,13.8 0,19.1 M 333.3,552.1 c 0,-28.7 23.4,-52.1 52.1,-52.1 28.7,0 52.1,23.4 52.1,52.1 0,28.7 -23.4,52.1 -52.1,52.1 -28.7,0 -52.1,-23.4 -52.1,-52.1 m 500,-52.1 c 0,-40.3 -32.6,-72.9 -72.9,-72.9 -19.7,0 -37.5,7.8 -50.6,20.5 -49.8,-36 -118.5,-59.2 -195,-61.9 L 548,229.4 656.5,252.5 c 1.3,27.6 23.9,49.6 51.8,49.6 28.8,0 52.1,-23.3 52.1,-52.1 0,-28.8 -23.3,-52.1 -52.1,-52.1 -20.5,0 -38,11.9 -46.5,29.1 L 540.6,201.2 c -3.4,-0.7 -6.9,-0.1 -9.8,1.8 -2.9,1.9 -4.9,4.8 -5.6,8.2 l -36.4,171.5 c -0.2,1 0,1.9 0,2.9 -77.9,2 -147.9,25.3 -198.5,61.8 -13.1,-12.6 -30.8,-20.3 -50.4,-20.3 -40.3,0 -72.9,32.7 -72.9,72.9 0,29.6 17.7,55.1 43.1,66.5 -1.1,7.2 -1.7,14.6 -1.7,22.1 0,112.2 130.6,203.1 291.7,203.1 161.1,0 291.7,-90.9 291.7,-203.1 0,-7.4 -0.6,-14.7 -1.7,-21.9 25.3,-11.4 43.2,-36.9 43.2,-66.7"
     id="Fill-3"
     style="fill:#000000" /></svg>
