<?xml version="1.0" encoding="UTF-8" standalone="no"?>
<svg
   height="500"
   width="500"
   version="1.1"
   viewBox="0 0 500 500"
   id="svg1"
   sodipodi:docname="spotify.svg"
   inkscape:version="1.4.2 (ebf0e940, 2025-05-08)"
   xmlns:inkscape="http://www.inkscape.org/namespaces/inkscape"
   xmlns:sodipodi="http://sodipodi.sourceforge.net/DTD/sodipodi-0.dtd"
   xmlns="http://www.w3.org/2000/svg"
   xmlns:svg="http://www.w3.org/2000/svg">
  <defs
     id="defs1" />
  <sodipodi:namedview
     id="namedview1"
     pagecolor="#ffffff"
     bordercolor="#000000"
     borderopacity="0.25"
     inkscape:showpageshadow="2"
     inkscape:pageopacity="0.0"
     inkscape:pagecheckerboard="0"
     inkscape:deskcolor="#d1d1d1"
     inkscape:zoom="0.87546554"
     inkscape:cx="15.420367"
     inkscape:cy="116.50944"
     inkscape:window-width="1800"
     inkscape:window-height="1097"
     inkscape:window-x="0"
     inkscape:window-y="44"
     inkscape:window-maximized="1"
     inkscape:current-layer="svg1" />
  <path
     fill="#1ed760"
     d="M 249.99851,0 C 111.93108,0 0,111.93076 0,250.00149 0,388.07819 111.93108,500 249.99851,500 388.08086,500 500,388.07819 500,250.00149 500,111.93972 388.08086,0.01194151 249.99552,0.01194151 Z m 114.6477,360.57391 c -4.47796,7.34403 -14.09065,9.67263 -21.4345,5.1647 -58.69709,-35.85438 -132.58939,-43.97461 -219.61107,-24.09199 -8.38573,1.91064 -16.74458,-3.34363 -18.65518,-11.73254 -1.91955,-8.38891 3.31369,-16.74796 11.72031,-18.65861 95.23127,-21.76639 176.91821,-12.38932 242.81587,27.88343 7.34384,4.50792 9.67239,14.09098 5.16457,21.43501 z m 30.59939,-68.08154 c -5.64223,9.18004 -17.64316,12.07586 -26.80805,6.4335 -67.19924,-41.31465 -169.63406,-53.27706 -249.11784,-29.14924 -10.30826,3.11375 -21.195676,-2.69579 -24.324278,-12.98639 -3.104718,-10.30851 2.707674,-21.17528 12.998018,-24.30993 90.79213,-27.54906 203.66357,-14.20442 280.83374,33.2183 9.1649,5.64236 12.06064,17.64358 6.41841,26.79675 z m 2.62708,-70.88481 C 317.29926,173.74898 184.36356,169.34853 107.4352,192.69717 95.082006,196.44382 82.018306,189.46998 78.274732,177.11649 74.531158,164.75702 81.498863,151.70196 93.861017,147.94636 182.16936,121.13767 328.9718,126.3173 421.73721,181.38856 c 11.13519,6.5947 14.77727,20.94541 8.17974,32.04205 -6.56767,11.11159 -20.95685,14.77464 -32.03233,8.17695 z"
     id="path1"
     style="stroke-width:2.98535" />
</svg>
