<?xml version="1.0" standalone="no"?>
<!DOCTYPE svg PUBLIC "-//W3C//DTD SVG 20010904//EN"
 "http://www.w3.org/TR/2001/REC-SVG-20010904/DTD/svg10.dtd">
<svg version="1.0" xmlns="http://www.w3.org/2000/svg"
 width="720.000000pt" height="720.000000pt" viewBox="0 0 720.000000 720.000000"
 preserveAspectRatio="xMidYMid meet">
<metadata>
Created by potrace 1.14, written by Peter Selinger 2001-2017
</metadata>
<g transform="translate(0.000000,720.000000) scale(0.100000,-0.100000)"
fill="#000000" stroke="none">
<path d="M3395 6993 c-38 -8 -95 -24 -125 -37 -94 -38 -2488 -1427 -2542
-1475 -110 -98 -121 -218 -31 -328 10 -11 614 -361 1343 -777 1066 -608 1336
-758 1380 -767 73 -14 260 -14 337 0 56 10 197 89 1185 655 618 353 1209 691
1313 751 204 116 236 140 266 197 25 49 25 136 0 186 -24 48 -89 107 -166 153
-331 198 -2401 1388 -2444 1405 -133 53 -363 70 -516 37z m390 -947 c148 -41
278 -128 316 -211 27 -58 24 -160 -6 -276 -40 -152 -31 -197 51 -245 41 -24
43 -28 27 -39 -10 -6 -126 -72 -257 -145 l-239 -133 -42 22 c-59 31 -113 78
-132 114 -24 46 -20 143 11 268 14 59 26 121 26 138 0 125 -138 194 -315 158
-196 -40 -395 -186 -532 -390 l-45 -68 -52 29 c-28 16 -111 62 -184 103 l-134
74 69 63 c179 166 333 273 538 377 152 77 317 136 460 166 114 23 347 21 440
-5z m794 -975 c111 -62 199 -117 194 -121 -15 -15 -493 -280 -504 -280 -14 0
-409 221 -409 229 0 7 502 290 511 288 3 -1 96 -53 208 -116z"/>
<path d="M583 5015 c-22 -19 -51 -57 -64 -87 l-24 -53 0 -1330 0 -1330 23 -80
c47 -163 141 -316 264 -430 65 -59 207 -145 1258 -751 651 -376 1204 -690
1229 -699 67 -23 149 -20 202 8 l44 24 5 1499 c5 1454 4 1500 -14 1539 -10 22
-34 63 -52 92 l-33 51 -1385 791 c-762 435 -1392 791 -1399 791 -7 0 -32 -16
-54 -35z m972 -1162 c130 -37 258 -92 366 -156 320 -189 507 -393 591 -647 28
-86 31 -107 32 -225 1 -117 -1 -135 -23 -183 -30 -67 -92 -122 -179 -159 -119
-50 -186 -87 -204 -113 -10 -14 -22 -53 -26 -86 l-7 -59 -222 128 -223 129 0
81 c1 157 48 209 267 296 88 35 146 85 159 137 12 49 -3 140 -32 194 -91 167
-311 279 -556 283 l-108 2 0 209 0 208 38 -6 c20 -4 78 -19 127 -33z m331
-1700 l223 -128 1 -237 c0 -131 -3 -238 -6 -238 -5 0 -66 35 -364 207 l-85 49
-3 237 c-1 130 1 237 4 237 4 0 107 -57 230 -127z"/>
<path d="M6275 4907 c-137 -79 -756 -433 -1375 -787 -619 -354 -1132 -652
-1140 -663 -8 -11 -34 -54 -57 -96 l-43 -76 0 -1491 c0 -1407 1 -1492 18
-1506 61 -54 168 -64 262 -24 54 22 2254 1289 2377 1368 186 120 342 375 373
612 7 54 10 494 8 1351 -3 1221 -4 1272 -22 1319 -23 59 -96 136 -128 136 -13
0 -135 -64 -273 -143z m-600 -1158 c56 -16 111 -76 131 -145 26 -89 21 -239
-11 -348 -33 -114 -120 -284 -236 -461 -126 -193 -162 -270 -169 -363 l-5 -74
-223 -129 c-123 -71 -225 -129 -228 -129 -12 0 -1 137 16 206 26 101 86 217
218 424 194 305 239 440 173 522 -44 54 -172 13 -316 -102 -64 -51 -243 -231
-313 -315 l-41 -50 -1 211 0 211 108 95 c205 180 347 282 501 358 181 90 297
116 396 89z m-285 -1828 l0 -239 -222 -129 c-122 -70 -226 -129 -230 -131 -4
-2 -8 104 -8 235 l0 238 228 132 c125 73 228 133 230 133 1 0 2 -108 2 -239z"/>
</g>
</svg>
