<svg width="393" height="298" viewBox="0 0 393 298" fill="none" xmlns="http://www.w3.org/2000/svg">
<g id="Group 21">
<g id="Ellipse 5" filter="url(#filter0_f_0_12)">
<path d="M143.3 307.24C174.452 340.009 253.085 329.731 220.316 360.882C187.546 392.034 109.763 392.288 78.6114 359.519C47.4598 326.749 77.2155 249.17 109.985 218.018C142.755 186.867 112.149 274.47 143.3 307.24Z" fill="#DF030E"/>
</g>
<g id="Ellipse 6" filter="url(#filter1_f_0_12)">
<path d="M344.054 290.96C375.206 323.73 331.394 339.86 298.624 371.011C265.854 402.163 262.467 352.837 231.316 320.067C200.164 287.298 121.4 291.737 154.17 260.585C186.94 229.434 312.902 258.191 344.054 290.96Z" fill="#04A5E3"/>
</g>
</g>
<defs>
<filter id="filter0_f_0_12" x="-145.404" y="0.566833" width="584.418" height="594.466" filterUnits="userSpaceOnUse" color-interpolation-filters="sRGB">
<feFlood flood-opacity="0" result="BackgroundImageFix"/>
<feBlend mode="normal" in="SourceGraphic" in2="BackgroundImageFix" result="shape"/>
<feGaussianBlur stdDeviation="105.43" result="effect1_foregroundBlur_0_12"/>
</filter>
<filter id="filter1_f_0_12" x="-64.5177" y="36.3535" width="630.097" height="555.429" filterUnits="userSpaceOnUse" color-interpolation-filters="sRGB">
<feFlood flood-opacity="0" result="BackgroundImageFix"/>
<feBlend mode="normal" in="SourceGraphic" in2="BackgroundImageFix" result="shape"/>
<feGaussianBlur stdDeviation="105.43" result="effect1_foregroundBlur_0_12"/>
</filter>
</defs>
</svg>
