<svg width="25" height="25" viewBox="0 0 25 25" fill="none" xmlns="http://www.w3.org/2000/svg">
<path id="Next" d="M0.831604 2.91934C0.831617 2.55263 0.932499 2.193 1.12321 1.87976C1.31393 1.56653 1.58713 1.31176 1.91294 1.14332C2.23875 0.974882 2.60462 0.899263 2.97053 0.924734C3.33643 0.950206 3.68829 1.07579 3.9876 1.28774L17.9876 11.2113C18.2477 11.3951 18.46 11.6384 18.6071 11.9209C18.7541 12.2034 18.8315 12.5169 18.8329 12.8353C18.8343 13.1537 18.7595 13.4679 18.6149 13.7516C18.4704 14.0353 18.2601 14.2804 18.0016 14.4665L4.0016 24.538C3.70294 24.7534 3.35059 24.8821 2.9834 24.9101C2.6162 24.938 2.24842 24.8641 1.92059 24.6964C1.59276 24.5287 1.3176 24.2737 1.12545 23.9596C0.933301 23.6456 0.831616 23.2846 0.831604 22.9164V2.91934ZM24.8316 1.91559C24.8316 1.65043 24.7262 1.39614 24.5387 1.20865C24.3512 1.02116 24.0968 0.915833 23.8316 0.915833C23.5664 0.915833 23.312 1.02116 23.1245 1.20865C22.937 1.39614 22.8316 1.65043 22.8316 1.91559V23.9101C22.8316 24.1753 22.937 24.4296 23.1245 24.6171C23.312 24.8046 23.5664 24.9099 23.8316 24.9099C24.0968 24.9099 24.3512 24.8046 24.5387 24.6171C24.7262 24.4296 24.8316 24.1753 24.8316 23.9101V1.91559Z" fill="white"/>
</svg>
