<?xml version="1.0" encoding="UTF-8" standalone="no"?>
<svg
   viewBox="0 0 500 500"
   width="500"
   height="500"
   fill-rule="evenodd"
   clip-rule="evenodd"
   version="1.1"
   id="svg8"
   sodipodi:docname="amazon.svg"
   inkscape:version="1.4.2 (ebf0e940, 2025-05-08)"
   xmlns:inkscape="http://www.inkscape.org/namespaces/inkscape"
   xmlns:sodipodi="http://sodipodi.sourceforge.net/DTD/sodipodi-0.dtd"
   xmlns="http://www.w3.org/2000/svg"
   xmlns:svg="http://www.w3.org/2000/svg">
  <defs
     id="defs8" />
  <sodipodi:namedview
     id="namedview8"
     pagecolor="#ffffff"
     bordercolor="#000000"
     borderopacity="0.25"
     inkscape:showpageshadow="2"
     inkscape:pageopacity="0.0"
     inkscape:pagecheckerboard="0"
     inkscape:deskcolor="#d1d1d1"
     inkscape:zoom="0.54166667"
     inkscape:cx="23.076923"
     inkscape:cy="24"
     inkscape:window-width="1800"
     inkscape:window-height="1097"
     inkscape:window-x="0"
     inkscape:window-y="44"
     inkscape:window-maximized="1"
     inkscape:current-layer="svg8" />
  <path
     fill="#3cd0d9"
     fill-rule="evenodd"
     d="M 500,125 C 500,56.013889 443.98611,0 375,0 H 125 C 56.013889,0 0,56.013889 0,125 v 250 c 0,68.98611 56.013889,125 125,125 h 250 c 68.98611,0 125,-56.01389 125,-125 z"
     clip-rule="evenodd"
     id="path1"
     style="stroke-width:13.8889" />
  <path
     fill="#ffffff"
     d="m 416.41667,305.55556 c -13,0 -28.44445,3.23611 -39.81945,11.34722 -3.25,2.43055 -3.25,5.66666 0.81945,5.66666 13,-1.625 42.26389,-5.66666 47.94444,1.625 4.875,6.48612 -5.69444,34.04167 -10.56944,47 -1.625,4.05556 1.625,4.86112 4.875,2.43056 21.94444,-18.63889 27.625,-56.73611 23.56944,-61.59722 -2.44444,-4.04167 -13.81944,-6.47222 -26.81944,-6.47222 z"
     id="path2"
     style="stroke-width:13.8889" />
  <path
     fill="#ffffff"
     d="m 57.638889,316.66667 c 25.138889,15.73611 50.555551,30.76389 77.236111,42.11111 26.58333,11.31944 54.47222,19.41666 82.5,19.52778 28.54167,0.76388 57.52778,-3.15278 85.65278,-9.55556 28.22222,-6.5 55.72222,-16.29167 82.73611,-27.75 3.52778,-1.51389 7.625,0.13889 9.125,3.66667 1.38889,3.26389 0.0833,7.01389 -2.91667,8.76389 -26.20833,15.125 -54.55555,26.84722 -84.08333,34.79166 -29.61111,7.94445 -60.19445,11.41667 -91.15278,10.91667 -31.61111,-1.65278 -61.875,-11.27778 -88.95833,-25.29167 C 100.625,359.76389 75.972222,342.04167 53.458333,322.22222 52.013889,320.94444 51.875,318.75 53.138889,317.30556 c 1.166667,-1.29167 3.083333,-1.52778 4.5,-0.63889 z"
     id="path3"
     style="stroke-width:13.8889" />
  <path
     fill="#ffffff"
     d="m 229.16667,277.77778 h -5.61111 c -16.05556,0 -29.11112,-13.05556 -29.11112,-29.11111 v -54.22223 h 13.88889 v 54.22223 c 0,8.38889 6.83334,15.22222 15.22223,15.22222 h 5.61111 c 8.375,0 20.83333,-12.45833 20.83333,-20.83333 v -13.88889 h 13.88889 v 13.88889 c 0,16.22222 -18.5,34.72222 -34.72222,34.72222 z"
     id="path4"
     style="stroke-width:13.8889" />
  <rect
     width="13.888889"
     height="83.333336"
     x="69.444443"
     y="194.44444"
     fill="#ffffff"
     fill-rule="evenodd"
     clip-rule="evenodd"
     id="rect4"
     style="stroke-width:13.8889" />
  <path
     fill="#ffffff"
     d="m 74.875,225.13889 c -0.291667,-6.76389 2.041667,-12.375 5.166667,-17.45833 1.625,-2.54167 3.416666,-4.97223 5.944444,-7.26389 2.805556,-2.375 6.027778,-3.93056 9.333333,-4.98611 13.666666,-4.05556 27.930556,4.23611 33.861116,16.61111 3.09722,6.26389 2.80555,13.80555 2.76388,18.38889 v 47.34722 h -13.88888 v -47.34722 c 0.0278,-5.84723 0.11111,-9.22223 -1.5,-12.58334 -2.90278,-6.91666 -11.47223,-9.98611 -18.541671,-9.77778 -6.194445,-0.26388 -14.486111,9.58334 -16.208333,17.06945 z"
     id="path5"
     style="stroke-width:13.8889" />
  <path
     fill="#ffffff"
     d="m 121.52778,225.13889 c -0.29167,-6.76389 2.04166,-12.375 5.16666,-17.45833 1.625,-2.54167 3.41667,-4.97223 5.94445,-7.26389 2.80555,-2.375 6.02778,-3.93056 9.33333,-4.98611 13.66667,-4.05556 27.93056,4.23611 33.86111,16.61111 3.09723,6.26389 2.80556,13.80555 2.76389,18.38889 v 47.34722 h -13.88889 v -47.34722 c 0.0278,-5.84723 0.11111,-9.22223 -1.5,-12.58334 -2.90277,-6.91666 -11.47222,-9.98611 -18.54166,-9.77778 -6.19445,-0.26388 -14.48611,9.58334 -16.20834,17.06945 z"
     id="path6"
     style="stroke-width:13.8889" />
  <rect
     width="13.888889"
     height="83.333336"
     x="250"
     y="194.44444"
     fill="#ffffff"
     fill-rule="evenodd"
     clip-rule="evenodd"
     id="rect6"
     style="stroke-width:13.8889" />
  <rect
     width="13.888889"
     height="83.333336"
     x="347.22223"
     y="194.44444"
     fill="#ffffff"
     fill-rule="evenodd"
     clip-rule="evenodd"
     id="rect7"
     style="stroke-width:13.8889" />
  <circle
     cx="354.16666"
     cy="166.66667"
     fill="#ffffff"
     fill-rule="evenodd"
     clip-rule="evenodd"
     id="circle7"
     style="stroke-width:13.8889"
     r="13.888889" />
  <path
     fill="#ffffff"
     d="m 388.88889,230.83333 v 10.55556 c 0,12.36111 10.13889,22.5 22.5,22.5 5.97222,0 11.66667,-2.36111 15.97222,-6.52778 l 3.19445,-3.19444 v 18.05555 c -5.69445,3.61111 -12.22223,5.55556 -19.16667,5.55556 -20,0 -36.38889,-16.38889 -36.38889,-36.38889 v -10.55556 c 0,-20 16.38889,-36.38889 36.38889,-36.38889 6.94444,0 13.47222,1.94445 19.16667,5.55556 v 18.05556 l -3.19445,-3.19445 c -4.30555,-4.16667 -10,-6.52778 -15.97222,-6.52778 -12.36111,0 -22.5,10.13889 -22.5,22.5 z"
     id="path7"
     style="stroke-width:13.8889" />
  <path
     fill="#ffffff"
     d="m 295.06944,207.70833 c -1.38888,0.97223 -3.40277,3.81945 -3.40277,7.56945 0,8.05555 4.44444,10.41666 16.11111,14.30555 10.83333,3.47223 25.55555,8.47223 25.55555,27.36111 0,7.22223 -2.77777,13.19445 -8.19444,17.36112 -6.80556,5.27777 -17.08333,6.94444 -26.94445,6.94444 -7.5,0 -15,-0.97222 -20.41666,-1.94444 v -14.16667 c 13.05555,2.63889 31.66666,3.88889 38.75,-1.80556 1.38889,-0.97222 2.91666,-2.63889 2.91666,-6.38889 0,-8.05555 -4.44444,-10.41666 -16.11111,-14.30555 -10.83333,-3.47222 -25.55555,-8.47222 -25.55555,-27.36111 0,-7.22222 2.77778,-13.19445 8.19444,-17.36111 12.08334,-9.44445 32.04167,-6.93056 44.34722,-2.27778 v 14.16667 c -12.86111,-7.41667 -28.16666,-7.79167 -35.25,-2.09723 z"
     id="path8"
     style="stroke-width:13.8889" />
</svg>
