<svg width="22" height="24" viewBox="0 0 22 24" fill="none" xmlns="http://www.w3.org/2000/svg">
<g id="Github" clip-path="url(#clip0_0_28)">
<path id="Icon" d="M6.81119 24.0089C7.6762 24.0089 7.92079 23.6772 7.92079 23.2531C7.92079 22.829 7.92079 21.9074 7.90181 20.5984C3.40587 21.5386 2.44704 18.497 2.44704 18.497C1.71327 16.7092 0.641077 16.2112 0.641077 16.2112C-0.825923 15.2525 0.75388 15.2711 0.75388 15.2711C2.37166 15.3816 3.23667 16.875 3.23667 16.875C4.68524 19.2714 7.01781 18.5709 7.93922 18.1654C8.01461 17.373 8.37201 16.6173 8.97399 16.064C5.38105 15.6771 1.60046 14.3314 1.60046 8.35886C1.58148 6.81072 2.18347 5.2987 3.27464 4.17466C3.08645 3.78776 2.54086 2.20241 3.40643 0.0457337C3.40643 0.0457337 4.76063 -0.378378 7.86439 1.6497C10.5164 0.949228 13.3007 0.949228 15.9527 1.6497C19.0191 -0.360319 20.3922 0.0451864 20.3922 0.0451864C21.2573 2.18326 20.7122 3.76861 20.5615 4.17412C21.6526 5.2987 22.2356 6.81017 22.2166 8.35832C22.2166 14.349 18.4355 15.658 14.8241 16.0449C15.3887 16.5056 15.9153 17.4644 15.9153 18.9206C15.9153 21.022 15.8963 22.6812 15.8963 23.1787C15.8963 23.5842 16.0845 23.9158 17.0059 23.9158L6.81063 24.0078L6.81119 24.0089Z" fill="white"/>
</g>
<defs>
<clipPath id="clip0_0_28">
<rect width="21.6923" height="24" fill="white" transform="translate(0.300903 0.0088501)"/>
</clipPath>
</defs>
</svg>
