<?xml version="1.0" encoding="UTF-8" standalone="no"?>
<!-- Uploaded to: SVG Repo, www.svgrepo.com, Generator: SVG Repo Mixer Tools -->

<svg
   fill="#000000"
   width="700"
   height="720"
   viewBox="0 0 28 28.8"
   version="1.1"
   id="svg1"
   sodipodi:docname="logo.svg"
   inkscape:version="1.3.2 (091e20ef0f, 2023-11-25)"
   inkscape:export-filename="logo.png"
   inkscape:export-xdpi="96"
   inkscape:export-ydpi="96"
   xmlns:inkscape="http://www.inkscape.org/namespaces/inkscape"
   xmlns:sodipodi="http://sodipodi.sourceforge.net/DTD/sodipodi-0.dtd"
   xmlns="http://www.w3.org/2000/svg"
   xmlns:svg="http://www.w3.org/2000/svg"
   xmlns:rdf="http://www.w3.org/1999/02/22-rdf-syntax-ns#"
   xmlns:cc="http://creativecommons.org/ns#"
   xmlns:dc="http://purl.org/dc/elements/1.1/">
  <defs
     id="defs1">
    <inkscape:path-effect
       effect="fillet_chamfer"
       id="path-effect1"
       is_visible="true"
       lpeversion="1"
       nodesatellites_param="F,0,0,1,0,2.5,0,1 @ F,0,0,1,0,2.5,0,1 @ F,0,0,1,0,2.5,0,1 @ F,0,0,1,0,2.5,0,1"
       radius="0"
       unit="px"
       method="auto"
       mode="F"
       chamfer_steps="1"
       flexible="false"
       use_knot_distance="true"
       apply_no_radius="true"
       apply_with_radius="true"
       only_selected="false"
       hide_knots="false" />
  </defs>
  <sodipodi:namedview
     id="namedview1"
     pagecolor="#ff00ff"
     bordercolor="#000000"
     borderopacity="0.25"
     inkscape:showpageshadow="2"
     inkscape:pageopacity="0.0"
     inkscape:pagecheckerboard="0"
     inkscape:deskcolor="#d1d1d1"
     inkscape:zoom="1.48125"
     inkscape:cx="350.04219"
     inkscape:cy="360.16878"
     inkscape:window-width="2560"
     inkscape:window-height="1410"
     inkscape:window-x="0"
     inkscape:window-y="30"
     inkscape:window-maximized="1"
     inkscape:current-layer="svg1" />
  <title
     id="title1">perspective-dice-random</title>
  <path
     style="fill:#ffffff;stroke-width:0.0405674"
     id="rect1"
     width="28"
     height="28.799999"
     x="2"
     y="1.6"
     inkscape:path-effect="#path-effect1"
     sodipodi:type="rect"
     d="m 4.5,1.6 h 23 A 2.5,2.5 45 0 1 30,4.1 l 0,23.799999 a 2.5,2.5 135 0 1 -2.5,2.5 h -23 a 2.5,2.5 45 0 1 -2.5,-2.5 V 4.1 A 2.5,2.5 135 0 1 4.5,1.6 Z"
     transform="translate(-2,-1.6)" />
  <path
     d="m 13.676,15.712 h 0.048 C 13.61,15.439 13.461,15.173 13.288,14.932 L 2.174,8.586 C 1.804,8.716 1.567,9.105 1.567,9.695 v 9.84 c 0,1.034 0.726,2.291 1.621,2.808 l 9.168,5.294 c 0.544,0.314 1.026,0.282 1.32,-0.023 z m -5.627,6.922 -1.83,-1.057 v -1.918 l 1.83,1.057 z m 1.556,-4.241 c -0.132,0.2 -0.357,0.369 -0.674,0.505 l -0.324,0.12 c -0.23,0.09 -0.38,0.183 -0.451,0.278 -0.071,0.092 -0.106,0.219 -0.106,0.38 v 0.242 L 6.22,18.862 v -0.264 c 0,-0.294 0.056,-0.523 0.167,-0.685 0.111,-0.165 0.346,-0.321 0.705,-0.466 L 7.416,17.322 C 7.609,17.246 7.749,17.151 7.837,17.037 7.928,16.924 7.974,16.786 7.974,16.62 7.974,16.369 7.893,16.126 7.731,15.892 7.569,15.655 7.342,15.452 7.052,15.284 6.778,15.126 6.483,15.016 6.165,14.955 5.847,14.89 5.516,14.877 5.171,14.915 v -1.691 c 0.409,0.085 0.782,0.19 1.12,0.313 0.338,0.123 0.664,0.276 0.978,0.457 0.825,0.476 1.453,1.019 1.886,1.627 0.433,0.605 0.649,1.251 0.649,1.937 0,0.352 -0.066,0.63 -0.198,0.834 z M 25.111,6.647 15.58,1.133 c -0.895,-0.51800002 -2.346,-0.51800002 -3.241,0 L 2.808,6.647 C 2.045,7.089 1.933,7.764 2.472,8.275 l 10.578,6.04 c 0.583,0.146 1.25,0.145 1.832,-0.003 l 10.589,-6.06 c 0.512,-0.508 0.392,-1.17 -0.36,-1.605 z M 14.305,8.817 14.075,8.688 C 13.818,8.544 13.654,8.381 13.583,8.2 13.509,8.017 13.521,7.726 13.62,7.326 L 13.715,6.967 C 13.77,6.753 13.776,6.578 13.731,6.442 13.69,6.303 13.598,6.194 13.454,6.113 13.235,5.99 12.972,5.946 12.666,5.98 12.357,6.013 12.038,6.121 11.708,6.306 11.398,6.48 11.116,6.697 10.862,6.959 10.605,7.219 10.385,7.516 10.201,7.851 L 8.725,7.024 C 9.057,6.691 9.383,6.399 9.703,6.149 c 0.32,-0.25 0.659,-0.474 1.015,-0.674 0.934,-0.524 1.803,-0.835 2.607,-0.934 0.8,-0.101 1.5,0.016 2.098,0.352 0.307,0.172 0.508,0.368 0.603,0.589 0.092,0.219 0.097,0.507 0.016,0.865 l -0.1,0.356 c -0.066,0.255 -0.08,0.438 -0.041,0.55 0.035,0.11 0.124,0.205 0.265,0.284 l 0.212,0.118 -2.074,1.162 z m 2.369,1.327 -1.673,-0.937 2.074,-1.162 1.673,0.937 z m 9.073,-1.57 -11.06,6.329 c -0.183,0.25 -0.34,0.527 -0.459,0.813 v 11.84 c 0.287,0.358 0.793,0.414 1.37,0.081 l 9.168,-5.294 c 0.895,-0.517 1.621,-1.774 1.621,-2.808 v -9.84 c 0,-0.608 -0.251,-1.003 -0.641,-1.121 z m -4.6,13.506 -1.83,1.056 v -1.918 l 1.83,-1.057 v 1.918 z m 1.556,-6.037 c -0.132,0.353 -0.357,0.78 -0.674,1.284 l -0.324,0.494 c -0.23,0.355 -0.38,0.622 -0.451,0.799 -0.071,0.174 -0.106,0.342 -0.106,0.503 v 0.242 l -1.83,1.056 v -0.264 c 0,-0.294 0.056,-0.587 0.167,-0.878 0.111,-0.294 0.346,-0.721 0.705,-1.279 l 0.324,-0.5 c 0.193,-0.298 0.333,-0.555 0.421,-0.771 0.091,-0.218 0.137,-0.409 0.137,-0.575 0,-0.251 -0.081,-0.4 -0.243,-0.447 -0.162,-0.05 -0.389,0.009 -0.679,0.177 -0.274,0.158 -0.569,0.39 -0.887,0.695 -0.318,0.302 -0.649,0.671 -0.994,1.107 v -1.692 c 0.409,-0.387 0.782,-0.714 1.12,-0.981 0.338,-0.267 0.664,-0.491 0.978,-0.673 0.825,-0.476 1.453,-0.659 1.886,-0.55 0.433,0.106 0.649,0.502 0.649,1.188 0,0.352 -0.066,0.706 -0.198,1.062 z"
     id="path1" />
  <metadata
     id="metadata1">
    <rdf:RDF>
      <cc:Work
         rdf:about="">
        <dc:title>perspective-dice-random</dc:title>
      </cc:Work>
    </rdf:RDF>
  </metadata>
</svg>
